# xmcd CD database file
# Copyright (C) 1995-1998 Ti Kan
#
# Track frame offsets:
#	150
#	18608
#	37544
#	53952
#	68530
#	81302
#	95095
#	114200
#	128866
#	144358
#	168062
#	183094
#	197839
#	214612
#	234487
#	254035
#	268241
#
# Disc length: 3771 seconds
#
# Revision: 3
# Processed by: cddbd v1.5.2PL0 Copyright (c) Steve Scherf et al.
# Submitted via: CDex 1.30Release
#
DISCID=e70eb911
DTITLE=Grant and Forsyth - *Hun Grootste Successen CD1*
DYEAR=1900
DGENRE=Country
TTITLE0=01-the sun ain't gonna shine anymore-/ Be my baby
TTITLE1=02-anything for you
TTITLE2=03-to know you is to love you
TTITLE3=04-driving my life away
TTITLE4=05-i believe
TTITLE5=06-lady bird
TTITLE6=07-you've lost that lovin' feeling
TTITLE7=08-sometimes when we touch
TTITLE8=09-why not me
TTITLE9=10-slow medley (All alone am i, I can't stop loving you, You needed 
TTITLE9=me, Ete
TTITLE10=11-walk of life
TTITLE11=12-let it be me
TTITLE12=13-love on the rocks
TTITLE13=14-do that to me one more time
TTITLE14=15-i swear
TTITLE15=16-tennessee waltz
TTITLE16=17-behind closed doors
EXTD=ID3G:   2
EXTT0=
EXTT1=
EXTT2=
EXTT3=
EXTT4=
EXTT5=
EXTT6=
EXTT7=
EXTT8=
EXTT9=
EXTT10=
EXTT11=
EXTT12=
EXTT13=
EXTT14=
EXTT15=
EXTT16=
PLAYORDER=
